<svg width="29" height="28" viewBox="0 0 29 28" fill="none" xmlns="http://www.w3.org/2000/svg">
<path d="M2.10515 24.5752H17.6977C19.0148 24.5752 19.8007 23.9512 19.8007 22.9153C19.8007 19.9003 15.9776 15.7537 9.89555 15.7537C3.82523 15.7537 0 19.9003 0 22.9153C0 23.9512 0.787967 24.5752 2.10515 24.5752ZM9.90515 13.673C12.4594 13.673 14.6327 11.4019 14.6327 8.46586C14.6327 5.58398 12.453 3.39094 9.90515 3.39094C7.35727 3.39094 5.17547 5.62453 5.17969 8.48719C5.1818 11.4019 7.34344 13.673 9.90515 13.673Z" fill="#FF6800"/>
<path d="M22.1428 14.4192C22.5633 14.4192 22.9294 14.2106 23.1806 13.8337L28.4201 5.63671C28.568 5.39296 28.7119 5.12038 28.7119 4.84663C28.7119 4.26983 28.1925 3.87937 27.6391 3.87937C27.2881 3.87937 26.9773 4.07413 26.7293 4.46999L22.1044 11.9034L19.9244 9.12609C19.6369 8.75531 19.3622 8.63086 19.0087 8.63086C18.4416 8.63086 17.9883 9.08953 17.9883 9.67382C17.9883 9.94734 18.0959 10.2115 18.2895 10.4637L21.0623 13.8422C21.3743 14.2416 21.7181 14.4192 22.1428 14.4192Z" fill="#FF6800"/>
</svg>
