<svg width="29" height="28" viewBox="0 0 29 28" fill="none" xmlns="http://www.w3.org/2000/svg">
<path d="M2.10515 24.5752H17.6977C19.0148 24.5752 19.8007 23.9512 19.8007 22.9153C19.8007 19.9003 15.9776 15.7537 9.89555 15.7537C3.82523 15.7537 0 19.9003 0 22.9153C0 23.9512 0.787967 24.5752 2.10515 24.5752ZM9.90515 13.673C12.4594 13.673 14.6327 11.4019 14.6327 8.46585C14.6327 5.58397 12.453 3.39093 9.90515 3.39093C7.35727 3.39093 5.17547 5.62452 5.17969 8.48718C5.1818 11.4019 7.34344 13.673 9.90515 13.673Z" fill="#FF6800"/>
<path d="M19.7918 13.4571C20.0918 13.4571 20.3515 13.3432 20.5526 13.1325L23.6466 10.0427L26.7406 13.1325C26.9417 13.3336 27.2034 13.4571 27.5131 13.4571C28.0962 13.4571 28.5666 12.9771 28.5666 12.3898C28.5666 12.097 28.4484 11.8545 28.2495 11.6459L25.1512 8.54554L28.2591 5.426C28.4677 5.2078 28.5762 4.97483 28.5762 4.69171C28.5762 4.10437 28.1079 3.63609 27.5227 3.63609C27.2323 3.63609 26.9918 3.73828 26.7715 3.95859L23.6466 7.06219L20.5334 3.97031C20.3323 3.7575 20.0918 3.65531 19.7918 3.65531C19.197 3.65531 18.7383 4.11398 18.7383 4.70132C18.7383 4.98444 18.8468 5.23874 19.0554 5.43561L22.1536 8.54554L19.0554 11.6555C18.8468 11.8545 18.7383 12.1088 18.7383 12.3898C18.7383 12.9771 19.197 13.4571 19.7918 13.4571Z" fill="#FF6800"/>
</svg>
